<svg xmlns="http://www.w3.org/2000/svg" color-interpolation-filters="sRGB" style="margin:auto" version="1.0" viewBox="0 0 340 250"><rect width="100%" height="100%" fill="#fff" class="background"/><g fill="#0088fa" class="icon-text-wrapper icon-svg-group iconsvg"><g class="iconsvg-imagesvg" transform="translate(73.245 94.618)"><path fill="none" d="M0 0h60v60.764H0z" class="image-rect"/><svg width="60" height="60.764" class="image-svg-svg primary" style="overflow:visible"><svg xmlns="http://www.w3.org/2000/svg" viewBox="0.003 -0.006 100.151 101.425"><defs><linearGradient id="a" x1="85.6" x2="28.38" y1="83.03" y2="19.83" gradientUnits="userSpaceOnUse"><stop offset="0" stop-color="#0035d4"/><stop offset="1" stop-color="#0086ff"/></linearGradient><linearGradient id="b" x1="50.48" x2="61.59" y1="9.61" y2="92.36" gradientUnits="userSpaceOnUse"><stop offset="0" stop-color="#a90908"/><stop offset=".52" stop-color="#eb0977"/><stop offset="1" stop-color="#8d003a"/></linearGradient><linearGradient id="c" x1="89.79" x2="55.71" y1="10.89" y2="34.02" gradientUnits="userSpaceOnUse"><stop offset="0" stop-color="#ffcf1e"/><stop offset=".99" stop-color="#ff9000"/></linearGradient><linearGradient id="d" x1="98.9" x2="64.81" y1="24.31" y2="47.43" gradientUnits="userSpaceOnUse"><stop offset="0" stop-color="#ffcf1e"/><stop offset=".99" stop-color="#ff9000"/></linearGradient><linearGradient id="e" x1=".95" x2="99.82" y1="52.43" y2="52.43" gradientUnits="userSpaceOnUse"><stop offset="0" stop-color="#ffcf1e"/><stop offset="1" stop-color="#ffff1e"/></linearGradient><linearGradient id="f" x1="54.93" x2="153.8" y1="480.58" y2="480.58" gradientTransform="rotate(65.66 407.613 220.537)" gradientUnits="userSpaceOnUse"><stop offset="0" stop-color="#00e8fe"/><stop offset="1" stop-color="#0088fa"/></linearGradient><linearGradient id="g" x1="34.2" x2="43.91" y1="105" y2="-5.46" gradientUnits="userSpaceOnUse"><stop offset="0" stop-color="#ff0981"/><stop offset="1" stop-color="#ff62a7"/></linearGradient></defs><path fill="url(#a)" d="M60.78 10.43C43 1.72 26.61 1.91 18.24 9.61a50.87 50.87 0 0 0-13.4 20.25 53.39 53.39 0 0 0-2.44 9.89C2.25 41.2 2.1 43 2 44.66c0-.35.06-.7.11-1 2.21-15.49 21.36-19.53 42.78-9s37 31.56 34.79 47.05c-1 7.05-5.52 11.73-12.17 13.75 1.62-.56 3.79-1.33 5.38-2a55.83 55.83 0 0 0 10.28-6 51.92 51.92 0 0 0 10.1-10.23 50.64 50.64 0 0 0 4.88-8 19.46 19.46 0 0 0 1.77-5.88c2.48-17.41-15.04-41.11-39.14-52.92z"/><path fill="url(#b)" d="M92.39 38.95C90.72 19.22 82.13 5.26 71.22 2A50.91 50.91 0 0 0 47 1a53.21 53.21 0 0 0-9.73 3c-1.33.62-3 1.41-4.43 2.18.31-.15.63-.31.95-.44C48.16-.38 61.48 14 63.5 37.74s-8 48-22.45 54c-6.57 2.77-12.9 1.3-18-3.37 1.32 1.1 3.09 2.56 4.47 3.59a55.88 55.88 0 0 0 10.43 5.73 51.91 51.91 0 0 0 13.93 3.44 50.51 50.51 0 0 0 9.36.08 19.46 19.46 0 0 0 6-1.51c16.11-6.8 27.42-34.01 25.15-60.75z"/><path fill="url(#c)" d="M91.9 33.94A41.9 41.9 0 0 0 87 13a33.43 33.43 0 0 0-3.4-5C68.74-1.49 39.93 4.71 19.23 21.8 4 34.41-2.62 49.42.95 60.22a50.86 50.86 0 0 0 12.93 20.55 53.48 53.48 0 0 0 8 6.3c1.76 1 4.15 2.35 6 3.26a21.53 21.53 0 0 1-2.57-1.39c-13.2-8.39-9-27.51 9.41-42.7s43.98-20.7 57.18-12.3z"/><path fill="url(#d)" d="M87 13a41.9 41.9 0 0 1 4.9 20.94c6 3.82 8.41 9.87 7.51 16.75.15-1.71.35-4 .41-5.72a55.8 55.8 0 0 0-1.23-11.84 51.91 51.91 0 0 0-5.1-13.41A50.65 50.65 0 0 0 88.22 12a19.49 19.49 0 0 0-4.63-4A33.43 33.43 0 0 1 87 13z"/><path fill="url(#e)" d="M93.48 19.73a52.1 52.1 0 0 1 5.1 13.41A57.11 57.11 0 0 1 99.82 45c-.09 1.72-.22 4-.41 5.72-1.08 8.24-6.9 17.68-16.91 25.95-17.26 14.26-40.89 20-54.64 13.69-1.82-.92-4.22-2.22-6-3.26a53.18 53.18 0 0 1-8-6.3 51.22 51.22 0 0 1-9.14-11.98 50.68 50.68 0 0 1-3.77-8.6 18 18 0 0 0 7.71 9.62C23.5 79.28 52.32 73.08 73 56c18.14-15 24-33.33 15.22-44a51.75 51.75 0 0 1 5.26 7.73z"/><path fill="url(#f)" d="M93.27 77.23a52.05 52.05 0 0 1-10.11 10.18 57.16 57.16 0 0 1-10.28 6c-1.6.63-3.74 1.45-5.38 2-8 2.41-18.94 1-30.61-4.71-20.11-9.85-35.07-29-35-44.14.09-2 .28-4.76.51-6.79a53.17 53.17 0 0 1 2.44-9.89A51.18 51.18 0 0 1 12 16.59a50.59 50.59 0 0 1 6.29-7 18 18 0 0 0-5.59 11C10.17 38 27.7 61.71 51.8 73.52c21.11 10.34 40.26 8.14 46.36-4.28a51.73 51.73 0 0 1-4.89 7.99z"/><path fill="url(#g)" d="M51.82 101.17a52.05 52.05 0 0 1-13.93-3.44A57.17 57.17 0 0 1 27.46 92c-1.36-1-3.17-2.46-4.47-3.59-6.15-5.58-10.6-15.73-11.7-28.68C9.4 37.42 18.14 14.74 31.14 7c1.8-1 4.22-2.21 6.08-3.06A53.05 53.05 0 0 1 47 1a51.14 51.14 0 0 1 15-.76A50.5 50.5 0 0 1 71.22 2a18 18 0 0 0-12.3.86C42.71 9.73 31.4 36.95 33.67 63.69c2 23.42 13.73 38.71 27.51 37.55a51.59 51.59 0 0 1-9.36-.07z"/></svg></svg></g><g><g class="tp-name iconsvg-namesvg" data-gra="path-name"><path d="M170.825 112.037c2.89 0 5.31-1.02 7.26-3.05 2.26-2.36 3.4-5.75 3.4-10.18v-23.11c0-.2-.07-.38-.2-.53-.14-.13-.3-.2-.5-.2h-6.62c-.21 0-.39.07-.52.2-.13.17-.2.34-.2.53.02 13.24-.26 21.76-.82 25.56-.44 2.78-1.05 4.76-1.85 5.94-.78 1.18-1.87 1.77-3.27 1.77-1.12 0-2.02-.36-2.7-1.07-.05-.05-.11-.1-.17-.15-1-1.12-1.75-3.28-2.25-6.49-.47-3.13-.73-8.37-.8-15.73v-9.83a.8.8 0 0 0-.2-.53c-.13-.13-.3-.2-.5-.2h-6.64c-.2 0-.36.07-.5.2-.13.17-.2.34-.2.53 0 13.36-.27 21.88-.82 25.56-.43 2.78-1.05 4.76-1.85 5.94-.78 1.18-1.87 1.77-3.27 1.77-1.11 0-2.02-.35-2.72-1.05a.404.404 0 0 0-.15-.17c-1-1.13-1.74-3.3-2.24-6.49-.55-3.68-.83-12.2-.83-25.56 0-.49-.24-.73-.72-.73-.47 0-.7.24-.7.73 0 13.43.27 22.01.82 25.76.49 3.41 1.38 5.84 2.67 7.29 1.52 2.19 3.92 3.29 7.19 3.29 2.9 0 5.31-1.02 7.24-3.05 1.52-1.56 2.53-3.63 3.05-6.21.5 2.73 1.3 4.71 2.42 5.94 1.5 2.21 3.89 3.32 7.19 3.32Zm20.09-11.46v-24.91c0-.46-.24-.7-.72-.7-.47 0-.7.24-.7.7v24.91h-3.82c-.47 0-.7.24-.7.73 0 .45.23.67.7.67h3.82v9.34c0 .48.23.72.7.72.48 0 .72-.24.72-.72v-9.34h11.86v9.34c0 .18.07.35.2.52.15.13.31.2.5.2h6.64c.2 0 .36-.07.47-.2.15-.15.23-.32.23-.52v-35.65c0-.2-.08-.37-.23-.5a.65.65 0 0 0-.47-.2h-6.64c-.19 0-.35.07-.5.2-.13.15-.2.32-.2.5v24.91Zm31.88-14.82c.63-3.43 1.6-5.67 2.89-6.72.02 0 .03-.01.03-.02.36-.27.81-.5 1.35-.7.15-.05.25-.09.32-.1.18-.05.31-.08.38-.08.38-.06.73-.1 1.04-.1h.05c2.03.02 3.81 1.02 5.35 3 1.69 2.16 2.54 4.92 2.54 8.28v11.24l-14.88-.03c.09-6.79.4-11.71.93-14.77Zm-6.14 16.2h3.79c-.02 1.91-.02 5.03-.02 9.36 0 .48.23.72.7.72.48 0 .72-.24.72-.72 0-4.33.01-7.45.02-9.36h14.88v9.36c0 .48.24.72.73.72h6.64c.46 0 .69-.24.69-.72v-23.14c0-4.43-1.31-7.83-3.94-10.21-2.2-2-4.94-3-8.24-3-3.77.02-6.5 1.12-8.18 3.3 0 .01-.01.03-.03.05 0 .03-.01.05-.02.05-1.49 1.48-2.48 3.87-3 7.16-.55 3.15-.86 8.15-.92 15l-3.82.03c-.49 0-.73.22-.73.67 0 .48.24.73.73.73Zm42.41 9.88c.13-.15.2-.32.2-.52v-34.93h6.76c.48 0 .73-.24.73-.72 0-.46-.25-.7-.73-.7h-21.57c-.48 0-.72.24-.72.7 0 .48.24.72.72.72h6.77v34.93c0 .2.07.37.22.52.14.13.3.2.5.2h6.62c.18 0 .35-.07.5-.2Z"/><path d="M177.92 160.71c3.56 0 6.546-1.251 8.946-3.752 2.793-2.915 4.185-7.09 4.185-12.545v-28.479a.915.915 0 0 0-.252-.645.836.836 0 0 0-.616-.252h-8.148a.89.89 0 0 0-.645.252 1.03 1.03 0 0 0-.242.645c.02 16.317-.323 26.815-1.019 31.494-.534 3.419-1.29 5.86-2.269 7.311-.968 1.463-2.31 2.189-4.034 2.189-1.371 0-2.48-.444-3.317-1.321-.06-.06-.142-.121-.222-.192-1.23-1.372-2.148-4.034-2.763-7.987-.575-3.862-.908-10.316-.989-19.382v-12.112c0-.222-.08-.444-.242-.645a.853.853 0 0 0-.615-.252H157.5a.836.836 0 0 0-.616.252c-.16.201-.252.423-.252.645 0 16.458-.332 26.956-1.008 31.494-.535 3.419-1.291 5.86-2.28 7.311-.957 1.463-2.309 2.189-4.023 2.189-1.382 0-2.49-.434-3.358-1.291a.734.734 0 0 0-.182-.222c-1.23-1.392-2.158-4.054-2.773-7.987-.676-4.538-1.008-15.036-1.008-31.494 0-.595-.303-.897-.898-.897-.575 0-.857.302-.857.897 0 16.549.343 27.127 1.019 31.736.595 4.205 1.684 7.2 3.287 8.975 1.866 2.713 4.82 4.064 8.854 4.064 3.57 0 6.545-1.25 8.925-3.751 1.866-1.926 3.116-4.478 3.751-7.654.616 3.358 1.604 5.798 2.975 7.311 1.846 2.733 4.8 4.094 8.865 4.094Zm26.473-45.673h-8.179a.925.925 0 0 0-.615.252.914.914 0 0 0-.242.615v43.918c0 .222.08.434.242.645a.844.844 0 0 0 .615.242h8.179c.252 0 .453-.08.615-.242a.932.932 0 0 0 .252-.645v-43.918a.799.799 0 0 0-.252-.615.906.906 0 0 0-.615-.252Zm31.897 36.506c-.494-.343-.908-.283-1.23.191-1.846 2.562-4.276 4.457-7.292 5.688a19.463 19.463 0 0 1-6.676 1.502c-.02-1.512-.03-5.677-.03-12.484V126.3c.02-2.5.03-4.982.03-7.442v-2.955a.914.914 0 0 0-.242-.615c-.191-.162-.393-.252-.615-.252h-8.148c-.232 0-.444.09-.645.252a.879.879 0 0 0-.253.615v43.918c0 .242.081.454.253.645a.933.933 0 0 0 .645.242h8.148c2.481 0 4.952-.464 7.412-1.381 3.691-1.352 6.626-3.55 8.824-6.585.323-.474.262-.868-.181-1.2Zm30.072 0c-.494-.343-.898-.283-1.23.191-1.846 2.562-4.276 4.457-7.292 5.688a19.408 19.408 0 0 1-6.666 1.502c-.03-1.512-.04-5.677-.04-12.484V126.3c.03-2.5.04-4.982.04-7.442v-2.955a.925.925 0 0 0-.252-.615.906.906 0 0 0-.615-.252h-8.148c-.222 0-.444.09-.645.252a.914.914 0 0 0-.242.615v43.918c0 .242.08.454.242.645a.951.951 0 0 0 .645.242h8.148c2.481 0 4.952-.464 7.412-1.381 3.691-1.352 6.636-3.55 8.824-6.585.333-.474.273-.868-.181-1.2Z" data-gra="path-name-1"/></g><g class="tp-slogan iconsvg-slogansvg" data-gra="path-slogan"><path d="M145.245 170.37h31.66v1h-31.66zM230.095 170.37h31.66v1h-31.66zM179.909 167.023l1.66 7.87h1.19l1.17-4.74c.06-.3.13-.6.19-.89.07-.3.14-.59.2-.9h.05c.06.31.13.6.19.9.06.29.12.59.19.89l1.19 4.74h1.2l1.63-7.87h-.96l-.82 4.28c-.08.43-.16.85-.23 1.27-.07.42-.15.84-.22 1.28h-.05c-.09-.44-.19-.86-.28-1.29-.1-.42-.2-.84-.29-1.26l-1.09-4.28h-.92l-1.09 4.28c-.09.43-.18.85-.27 1.27-.1.42-.19.84-.28 1.28h-.05c-.07-.44-.15-.86-.23-1.28-.08-.41-.15-.84-.22-1.27l-.83-4.28Zm10.23 0v7.87h4.66v-.85h-3.66v-2.86h2.99v-.85h-2.99v-2.47h3.54v-.84Zm8.75 0v7.87h1v-3.12h1.41c.43 0 .83-.05 1.18-.15.36-.1.67-.25.92-.45.26-.2.46-.45.6-.76.14-.3.21-.66.21-1.08 0-.43-.07-.79-.21-1.09-.14-.29-.34-.53-.59-.71-.25-.18-.56-.31-.92-.39-.36-.08-.76-.12-1.19-.12Zm2.29 3.93h-1.29v-3.13h1.29c.68 0 1.19.11 1.53.33.33.22.5.62.5 1.18 0 .56-.17.97-.5 1.23-.33.26-.84.39-1.53.39Zm4.62-3.93v7.87h4.44v-.85h-3.44v-7.02Zm9.22 4.67h-2.37l.38-1.2c.14-.44.28-.88.4-1.32.13-.43.26-.88.38-1.34h.04c.13.46.26.91.39 1.34.13.44.26.88.41 1.32Zm.25.8.74 2.4h1.07l-2.66-7.87h-1.13l-2.66 7.87h1.02l.75-2.4Zm4.03-.65v3.05h1.01v-3.05l2.36-4.82h-1.04l-1.01 2.22c-.12.29-.25.57-.38.85-.14.28-.27.57-.41.86h-.05c-.13-.29-.26-.58-.38-.86s-.25-.56-.37-.85l-1.02-2.22h-1.07Zm5.2.67h.86c-.03-.28-.01-.53.06-.76.07-.23.18-.44.31-.64s.27-.39.43-.58c.16-.19.3-.38.44-.57.14-.19.26-.4.36-.61.09-.22.14-.46.14-.72 0-.6-.18-1.07-.56-1.41-.37-.34-.87-.51-1.49-.51-.43 0-.81.09-1.14.28-.33.19-.62.42-.88.71l.57.52c.18-.22.39-.39.63-.51.23-.13.48-.19.75-.19.38 0 .67.12.87.34.19.23.29.51.29.83 0 .21-.04.41-.14.6-.09.18-.2.36-.34.54-.13.18-.28.36-.44.55-.15.18-.29.38-.41.59-.12.21-.21.45-.28.7-.07.25-.08.53-.03.84Zm-.25 1.78c0 .22.06.39.2.53s.3.21.5.21.37-.07.51-.21c.14-.14.21-.31.21-.53 0-.23-.07-.42-.21-.56a.694.694 0 0 0-.51-.21c-.2 0-.36.07-.5.21-.14.14-.2.33-.2.56Z"/></g></g></g></svg>