<?xml version="1.0"?>
<svg width="340" height="250" xmlns="http://www.w3.org/2000/svg" xmlns:svg="http://www.w3.org/2000/svg" version="1.0">
 <g class="layer">
  <title>Layer 1</title>
  <rect class="background" fill="#fff" height="100%" id="svg_17" transform="matrix(1, 0, 0, 1, 0, 0)" width="100%"/>
  <g class="icon-text-wrapper icon-svg-group iconsvg" fill="#0088fa" id="svg_18" transform="translate(6.245, 24.97) scale(1.26385, 1.32437) translate(-6.245, -24.97) translate(266.757, 175.03) matrix(1.34106, 0, 0, 1.48971, -357.738, -260.743)">
   <g class="iconsvg-imagesvg" id="svg_19" transform="translate(73.245 94.618)">
    <path class="image-rect" d="m0,0l60,0l0,60.76l-60,0l0,-60.76z" fill="none" id="svg_20"/>
    <g id="svg_8">
     <svg class="image-svg-svg primary" height="60.76" id="svg_21" width="60">
      <g id="svg_16">
       <svg id="svg_22" viewBox="0.003 -0.006 100.151 101.425" xmlns="http://www.w3.org/2000/svg">
        <defs>
         <linearGradient id="svg_15" x1="0.85" x2="0.27" y1="0.86" y2="0.17">
          <stop offset="0" stop-color="#0035d4"/>
          <stop offset="1" stop-color="#0086ff"/>
         </linearGradient>
         <linearGradient id="svg_14" x1="0.39" x2="0.55" y1="0.09" y2="0.91">
          <stop offset="0" stop-color="#a90908"/>
          <stop offset="0.52" stop-color="#eb0977"/>
          <stop offset="1" stop-color="#8d003a"/>
         </linearGradient>
         <linearGradient id="svg_13" x1="0.98" x2="0.61" y1="0.08" y2="0.35">
          <stop offset="0" stop-color="#ffcf1e"/>
          <stop offset="0.99" stop-color="#ff9000"/>
         </linearGradient>
         <linearGradient id="svg_12" x1="0.94" x2="-1.16" y1="0.38" y2="0.92">
          <stop offset="0" stop-color="#ffcf1e"/>
          <stop offset="0.99" stop-color="#ff9000"/>
         </linearGradient>
         <linearGradient id="svg_11" x1="0" x2="1" y1="0.5" y2="0.5">
          <stop offset="0" stop-color="#ffcf1e"/>
          <stop offset="1" stop-color="#ffff1e"/>
         </linearGradient>
         <linearGradient id="svg_10" x1="0.24" x2="0.67" y1="-0.04" y2="1">
          <stop offset="0" stop-color="#00e8fe"/>
          <stop offset="1" stop-color="#0088fa"/>
         </linearGradient>
         <linearGradient id="svg_9" x1="0.38" x2="0.55" y1="1.04" y2="-0.05">
          <stop offset="0" stop-color="#ff0981"/>
          <stop offset="1" stop-color="#ff62a7"/>
         </linearGradient>
        </defs>
        <path d="m60.78,10.43c-17.78,-8.71 -34.17,-8.52 -42.54,-0.82a50.87,50.87 0 0 0 -13.4,20.25a53.39,53.39 0 0 0 -2.44,9.89c-0.15,1.45 -0.3,3.25 -0.4,4.91c0,-0.35 0.06,-0.7 0.11,-1c2.21,-15.49 21.36,-19.53 42.78,-9s37,31.56 34.79,47.05c-1,7.05 -5.52,11.73 -12.17,13.75c1.62,-0.56 3.79,-1.33 5.38,-2a55.83,55.83 0 0 0 10.28,-6a51.92,51.92 0 0 0 10.1,-10.23a50.64,50.64 0 0 0 4.88,-8a19.46,19.46 0 0 0 1.77,-5.88c2.48,-17.41 -15.04,-41.11 -39.14,-52.92z" fill="url(#svg_15)" id="svg_23"/>
        <path d="m92.39,38.95c-1.67,-19.73 -10.26,-33.69 -21.17,-36.95a50.91,50.91 0 0 0 -24.22,-1a53.21,53.21 0 0 0 -9.73,3c-1.33,0.62 -3,1.41 -4.43,2.18c0.31,-0.15 0.63,-0.31 0.95,-0.44c14.37,-6.12 27.69,8.26 29.71,32s-8,48 -22.45,54c-6.57,2.77 -12.9,1.3 -18,-3.37c1.32,1.1 3.09,2.56 4.47,3.59a55.88,55.88 0 0 0 10.43,5.73a51.91,51.91 0 0 0 13.93,3.44a50.51,50.51 0 0 0 9.36,0.08a19.46,19.46 0 0 0 6,-1.51c16.11,-6.8 27.42,-34.01 25.15,-60.75z" fill="url(#svg_14)" id="svg_24"/>
        <path d="m91.9,33.94a41.9,41.9 0 0 0 -4.9,-20.94a33.43,33.43 0 0 0 -3.4,-5c-14.86,-9.49 -43.67,-3.29 -64.37,13.8c-15.23,12.61 -21.85,27.62 -18.28,38.42a50.86,50.86 0 0 0 12.93,20.55a53.48,53.48 0 0 0 8,6.3c1.76,1 4.15,2.35 6,3.26a21.53,21.53 0 0 1 -2.57,-1.39c-13.2,-8.39 -9,-27.51 9.41,-42.7s43.98,-20.7 57.18,-12.3z" fill="url(#svg_13)" id="svg_25"/>
        <path d="m87,13a41.9,41.9 0 0 1 4.9,20.94c6,3.82 8.41,9.87 7.51,16.75c0.15,-1.71 0.35,-4 0.41,-5.72a55.8,55.8 0 0 0 -1.23,-11.84a51.91,51.91 0 0 0 -5.1,-13.41a50.65,50.65 0 0 0 -5.27,-7.72a19.49,19.49 0 0 0 -4.63,-4a33.43,33.43 0 0 1 3.41,5z" fill="url(#svg_12)" id="svg_26"/>
        <path d="m93.48,19.73a52.1,52.1 0 0 1 5.1,13.41a57.11,57.11 0 0 1 1.24,11.86c-0.09,1.72 -0.22,4 -0.41,5.72c-1.08,8.24 -6.9,17.68 -16.91,25.95c-17.26,14.26 -40.89,20 -54.64,13.69c-1.82,-0.92 -4.22,-2.22 -6,-3.26a53.18,53.18 0 0 1 -8,-6.3a51.22,51.22 0 0 1 -9.14,-11.98a50.68,50.68 0 0 1 -3.77,-8.6a18,18 0 0 0 7.71,9.62c14.84,9.44 43.66,3.24 64.34,-13.84c18.14,-15 24,-33.33 15.22,-44a51.75,51.75 0 0 1 5.26,7.73z" fill="url(#svg_11)" id="svg_27"/>
        <path d="m93.27,77.23a52.05,52.05 0 0 1 -10.11,10.18a57.16,57.16 0 0 1 -10.28,6c-1.6,0.63 -3.74,1.45 -5.38,2c-8,2.41 -18.94,1 -30.61,-4.71c-20.11,-9.85 -35.07,-29 -35,-44.14c0.09,-2 0.28,-4.76 0.51,-6.79a53.17,53.17 0 0 1 2.44,-9.89a51.18,51.18 0 0 1 7.16,-13.29a50.59,50.59 0 0 1 6.29,-7a18,18 0 0 0 -5.59,11c-2.53,17.41 15,41.12 39.1,52.93c21.11,10.34 40.26,8.14 46.36,-4.28a51.73,51.73 0 0 1 -4.89,7.99z" fill="url(#svg_10)" id="svg_28"/>
        <path d="m51.82,101.17a52.05,52.05 0 0 1 -13.93,-3.44a57.17,57.17 0 0 1 -10.43,-5.73c-1.36,-1 -3.17,-2.46 -4.47,-3.59c-6.15,-5.58 -10.6,-15.73 -11.7,-28.68c-1.89,-22.31 6.85,-44.99 19.85,-52.73c1.8,-1 4.22,-2.21 6.08,-3.06a53.05,53.05 0 0 1 9.78,-2.94a51.14,51.14 0 0 1 15,-0.76a50.5,50.5 0 0 1 9.22,1.76a18,18 0 0 0 -12.3,0.86c-16.21,6.87 -27.52,34.09 -25.25,60.83c2,23.42 13.73,38.71 27.51,37.55a51.59,51.59 0 0 1 -9.36,-0.07z" fill="url(#svg_9)" id="svg_29"/>
       </svg>
      </g>
     </svg>
    </g>
   </g>
   <g id="svg_30">
    <g class="tp-name iconsvg-namesvg" data-gra="path-name" id="svg_31">
     <path d="m170.82,112.04c2.89,0 5.31,-1.02 7.26,-3.05c2.26,-2.36 3.4,-5.75 3.4,-10.18l0,-23.11c0,-0.2 -0.07,-0.38 -0.2,-0.53c-0.13,-0.13 -0.3,-0.2 -0.5,-0.2l-6.62,0c-0.21,0 -0.38,0.07 -0.52,0.2c-0.13,0.17 -0.2,0.34 -0.2,0.53c0.03,13.24 -0.25,21.76 -0.81,25.56c-0.44,2.78 -1.06,4.76 -1.85,5.94c-0.78,1.18 -1.87,1.77 -3.28,1.77c-1.12,0 -2.02,-0.36 -2.69,-1.07c-0.06,-0.05 -0.12,-0.1 -0.17,-0.15c-1,-1.12 -1.75,-3.28 -2.25,-6.49c-0.47,-3.13 -0.73,-8.37 -0.8,-15.73l0,-9.83a0.8,0.8 0 0 0 -0.2,-0.53c-0.13,-0.13 -0.3,-0.2 -0.5,-0.2l-6.64,0c-0.2,0 -0.36,0.07 -0.5,0.2c-0.13,0.17 -0.2,0.34 -0.2,0.53c0,13.36 -0.27,21.88 -0.82,25.56c-0.43,2.78 -1.05,4.76 -1.85,5.94c-0.78,1.18 -1.87,1.77 -3.27,1.77c-1.11,0 -2.02,-0.35 -2.72,-1.05a0.4,0.4 0 0 0 -0.15,-0.17c-1,-1.13 -1.74,-3.3 -2.24,-6.49c-0.55,-3.68 -0.83,-12.2 -0.83,-25.56c0,-0.49 -0.24,-0.73 -0.72,-0.73c-0.47,0 -0.7,0.24 -0.7,0.73c0,13.43 0.27,22.01 0.82,25.76c0.49,3.41 1.38,5.84 2.67,7.29c1.52,2.19 3.92,3.29 7.19,3.29c2.9,0 5.31,-1.02 7.24,-3.05c1.52,-1.56 2.53,-3.63 3.05,-6.21c0.5,2.73 1.3,4.71 2.42,5.94c1.5,2.21 3.89,3.32 7.19,3.32l-0.01,0zm20.09,-11.46l0,-24.91c0,-0.46 -0.24,-0.7 -0.72,-0.7c-0.47,0 -0.69,0.24 -0.69,0.7l0,24.91l-3.82,0c-0.47,0 -0.7,0.24 -0.7,0.73c0,0.45 0.23,0.67 0.7,0.67l3.82,0l0,9.34c0,0.48 0.22,0.72 0.69,0.72c0.48,0 0.72,-0.24 0.72,-0.72l0,-9.34l11.86,0l0,9.34c0,0.18 0.07,0.35 0.2,0.52c0.15,0.13 0.31,0.2 0.5,0.2l6.64,0c0.2,0 0.36,-0.07 0.47,-0.2c0.15,-0.15 0.23,-0.32 0.23,-0.52l0,-35.65c0,-0.2 -0.08,-0.37 -0.23,-0.5a0.65,0.65 0 0 0 -0.47,-0.2l-6.64,0c-0.19,0 -0.35,0.07 -0.5,0.2c-0.13,0.15 -0.2,0.32 -0.2,0.5l0,24.91l-11.86,0zm31.88,-14.82c0.63,-3.43 1.6,-5.67 2.89,-6.72c0.02,0 0.03,-0.01 0.03,-0.02c0.36,-0.27 0.81,-0.5 1.35,-0.7c0.15,-0.05 0.25,-0.09 0.32,-0.1c0.18,-0.05 0.31,-0.08 0.38,-0.08c0.38,-0.06 0.73,-0.1 1.04,-0.1l0.05,0c2.03,0.02 3.81,1.02 5.35,3c1.69,2.16 2.54,4.92 2.54,8.28l0,11.24l-14.88,-0.03c0.09,-6.79 0.4,-11.71 0.93,-14.77zm-6.13,16.2l3.78,0c-0.02,1.91 -0.02,5.03 -0.02,9.36c0,0.48 0.23,0.72 0.7,0.72c0.48,0 0.72,-0.24 0.72,-0.72c0,-4.33 0.01,-7.45 0.02,-9.36l14.88,0l0,9.36c0,0.48 0.24,0.72 0.73,0.72l6.64,0c0.46,0 0.69,-0.24 0.69,-0.72l0,-23.14c0,-4.43 -1.31,-7.83 -3.94,-10.21c-2.2,-2 -4.94,-3 -8.24,-3c-3.77,0.02 -6.5,1.12 -8.18,3.3c0,0.01 -0.01,0.03 -0.03,0.05c0,0.03 -0.01,0.05 -0.02,0.05c-1.49,1.48 -2.48,3.87 -3,7.16c-0.55,3.15 -0.86,8.15 -0.92,15l-3.82,0.03c-0.49,0 -0.73,0.22 -0.73,0.67c0,0.48 0.24,0.73 0.73,0.73l0.01,0zm42.4,9.88c0.13,-0.15 0.2,-0.32 0.2,-0.52l0,-34.93l6.76,0c0.48,0 0.73,-0.24 0.73,-0.72c0,-0.46 -0.25,-0.7 -0.73,-0.7l-21.57,0c-0.48,0 -0.72,0.24 -0.72,0.7c0,0.48 0.24,0.72 0.72,0.72l6.77,0l0,34.93c0,0.2 0.07,0.37 0.22,0.52c0.14,0.13 0.31,0.2 0.5,0.2l6.62,0c0.19,0 0.36,-0.07 0.5,-0.2z" id="svg_32"/>
     <path d="m177.92,160.71c3.56,0 6.55,-1.25 8.95,-3.75c2.79,-2.92 4.18,-7.09 4.18,-12.55l0,-28.48a0.92,0.92 0 0 0 -0.25,-0.64a0.84,0.84 0 0 0 -0.62,-0.25l-8.15,0a0.89,0.89 0 0 0 -0.64,0.25a1.03,1.03 0 0 0 -0.24,0.64c0.02,16.32 -0.33,26.82 -1.02,31.5c-0.54,3.42 -1.29,5.86 -2.27,7.31c-0.97,1.46 -2.31,2.19 -4.03,2.19c-1.38,0 -2.48,-0.45 -3.32,-1.32c-0.06,-0.06 -0.14,-0.12 -0.22,-0.2c-1.23,-1.37 -2.15,-4.03 -2.77,-7.98c-0.57,-3.86 -0.9,-10.32 -0.99,-19.38l0,-12.12c0,-0.22 -0.08,-0.44 -0.24,-0.64a0.85,0.85 0 0 0 -0.61,-0.25l-8.18,0a0.84,0.84 0 0 0 -0.62,0.25c-0.16,0.2 -0.25,0.42 -0.25,0.64c0,16.46 -0.33,26.96 -1.01,31.5c-0.53,3.42 -1.29,5.86 -2.28,7.31c-0.95,1.46 -2.31,2.19 -4.02,2.19c-1.38,0 -2.49,-0.44 -3.36,-1.29a0.73,0.73 0 0 0 -0.18,-0.23c-1.23,-1.39 -2.16,-4.05 -2.77,-7.98c-0.68,-4.54 -1.01,-15.04 -1.01,-31.5c0,-0.59 -0.3,-0.89 -0.9,-0.89c-0.57,0 -0.86,0.3 -0.86,0.89c0,16.55 0.35,27.13 1.02,31.74c0.6,4.21 1.69,7.2 3.29,8.97c1.87,2.72 4.82,4.07 8.85,4.07c3.57,0 6.55,-1.25 8.93,-3.75c1.87,-1.93 3.12,-4.48 3.75,-7.66c0.62,3.36 1.61,5.8 2.98,7.31c1.84,2.74 4.8,4.1 8.86,4.1zm26.47,-45.67l-8.18,0a0.93,0.93 0 0 0 -0.61,0.25a0.91,0.91 0 0 0 -0.24,0.61l0,43.92c0,0.22 0.08,0.44 0.24,0.65a0.84,0.84 0 0 0 0.61,0.24l8.18,0c0.25,0 0.46,-0.08 0.62,-0.24a0.93,0.93 0 0 0 0.25,-0.65l0,-43.92a0.8,0.8 0 0 0 -0.25,-0.61a0.91,0.91 0 0 0 -0.62,-0.25zm31.9,36.5c-0.49,-0.34 -0.91,-0.28 -1.23,0.19c-1.85,2.57 -4.28,4.46 -7.29,5.69a19.46,19.46 0 0 1 -6.68,1.5c-0.02,-1.51 -0.03,-5.67 -0.03,-12.48l0,-20.14c0.02,-2.5 0.03,-4.98 0.03,-7.44l0,-2.96a0.91,0.91 0 0 0 -0.24,-0.61c-0.19,-0.16 -0.39,-0.25 -0.62,-0.25l-8.14,0c-0.24,0 -0.45,0.09 -0.65,0.25a0.88,0.88 0 0 0 -0.25,0.61l0,43.92c0,0.24 0.08,0.46 0.25,0.65a0.93,0.93 0 0 0 0.65,0.24l8.14,0c2.49,0 4.96,-0.47 7.42,-1.38c3.69,-1.36 6.62,-3.55 8.82,-6.59c0.32,-0.47 0.26,-0.87 -0.18,-1.2zm30.07,0c-0.49,-0.34 -0.9,-0.28 -1.23,0.19c-1.84,2.57 -4.27,4.46 -7.29,5.69a19.41,19.41 0 0 1 -6.67,1.5c-0.03,-1.51 -0.04,-5.67 -0.04,-12.48l0,-20.14c0.03,-2.5 0.04,-4.98 0.04,-7.44l0,-2.96a0.93,0.93 0 0 0 -0.25,-0.61a0.91,0.91 0 0 0 -0.61,-0.25l-8.15,0c-0.22,0 -0.45,0.09 -0.65,0.25a0.91,0.91 0 0 0 -0.24,0.61l0,43.92c0,0.24 0.08,0.46 0.24,0.65a0.95,0.95 0 0 0 0.65,0.24l8.15,0c2.48,0 4.95,-0.47 7.41,-1.38c3.69,-1.36 6.63,-3.55 8.82,-6.59c0.34,-0.47 0.28,-0.87 -0.18,-1.2z" data-gra="path-name-1" id="svg_33"/>
    </g>
    <g class="tp-slogan iconsvg-slogansvg" data-gra="path-slogan" id="svg_34">
     <path d="m145.25,170.37l31.66,0l0,1l-31.66,0l0,-1zm84.84,0l31.66,0l0,1l-31.66,0l0,-1zm-50.18,-3.35l1.66,7.87l1.19,0l1.17,-4.74c0.06,-0.3 0.13,-0.6 0.19,-0.89c0.07,-0.3 0.14,-0.59 0.2,-0.9l0.05,0c0.06,0.31 0.13,0.6 0.19,0.9c0.06,0.29 0.12,0.59 0.19,0.89l1.19,4.74l1.2,0l1.63,-7.87l-0.96,0l-0.82,4.28c-0.08,0.43 -0.16,0.85 -0.23,1.27c-0.07,0.42 -0.15,0.84 -0.22,1.28l-0.05,0c-0.09,-0.44 -0.19,-0.86 -0.28,-1.29c-0.1,-0.42 -0.2,-0.84 -0.29,-1.26l-1.09,-4.28l-0.92,0l-1.09,4.28c-0.09,0.43 -0.18,0.85 -0.27,1.27c-0.1,0.42 -0.19,0.84 -0.28,1.28l-0.05,0c-0.07,-0.44 -0.15,-0.86 -0.23,-1.28c-0.08,-0.41 -0.15,-0.84 -0.22,-1.27l-0.83,-4.28l-1.03,0zm10.23,0l0,7.87l4.66,0l0,-0.85l-3.66,0l0,-2.86l2.99,0l0,-0.85l-2.99,0l0,-2.47l3.54,0l0,-0.84l-4.54,0zm8.75,0l0,7.87l1,0l0,-3.12l1.41,0c0.43,0 0.83,-0.05 1.18,-0.15c0.36,-0.1 0.67,-0.25 0.92,-0.45c0.26,-0.2 0.46,-0.45 0.6,-0.76c0.14,-0.3 0.21,-0.66 0.21,-1.08c0,-0.43 -0.07,-0.79 -0.21,-1.09c-0.14,-0.29 -0.34,-0.53 -0.59,-0.71c-0.25,-0.18 -0.56,-0.31 -0.92,-0.39c-0.36,-0.08 -0.76,-0.12 -1.19,-0.12l-2.41,0zm2.29,3.93l-1.29,0l0,-3.13l1.29,0c0.68,0 1.19,0.11 1.53,0.33c0.33,0.22 0.5,0.62 0.5,1.18c0,0.56 -0.17,0.97 -0.5,1.23c-0.33,0.26 -0.84,0.39 -1.53,0.39zm4.62,-3.93l0,7.87l4.44,0l0,-0.85l-3.44,0l0,-7.02l-1,0zm9.22,4.67l-2.37,0l0.38,-1.2c0.14,-0.44 0.28,-0.88 0.4,-1.32c0.13,-0.43 0.26,-0.88 0.38,-1.34l0.04,0c0.13,0.46 0.26,0.91 0.39,1.34c0.13,0.44 0.26,0.88 0.41,1.32l0.37,1.2zm0.25,0.8l0.74,2.4l1.07,0l-2.66,-7.87l-1.13,0l-2.66,7.87l1.02,0l0.75,-2.4l2.87,0zm4.03,-0.65l0,3.05l1.01,0l0,-3.05l2.36,-4.82l-1.04,0l-1.01,2.22c-0.12,0.29 -0.25,0.57 -0.38,0.85c-0.14,0.28 -0.27,0.57 -0.41,0.86l-0.05,0c-0.13,-0.29 -0.26,-0.58 -0.38,-0.86s-0.25,-0.56 -0.37,-0.85l-1.02,-2.22l-1.07,0l2.36,4.82zm5.2,0.67l0.86,0c-0.03,-0.28 -0.01,-0.53 0.06,-0.76c0.07,-0.23 0.18,-0.44 0.31,-0.64s0.27,-0.39 0.43,-0.58c0.16,-0.19 0.3,-0.38 0.44,-0.57c0.14,-0.19 0.26,-0.4 0.36,-0.61c0.09,-0.22 0.14,-0.46 0.14,-0.72c0,-0.6 -0.18,-1.07 -0.56,-1.41c-0.37,-0.34 -0.87,-0.51 -1.49,-0.51c-0.43,0 -0.81,0.09 -1.14,0.28c-0.33,0.19 -0.62,0.42 -0.88,0.71l0.57,0.52c0.18,-0.22 0.39,-0.39 0.63,-0.51c0.23,-0.13 0.48,-0.19 0.75,-0.19c0.38,0 0.67,0.12 0.87,0.34c0.19,0.23 0.29,0.51 0.29,0.83c0,0.21 -0.04,0.41 -0.14,0.6c-0.09,0.18 -0.2,0.36 -0.34,0.54c-0.13,0.18 -0.28,0.36 -0.44,0.55c-0.15,0.18 -0.29,0.38 -0.41,0.59c-0.12,0.21 -0.21,0.45 -0.28,0.7c-0.07,0.25 -0.08,0.53 -0.03,0.84zm-0.25,1.78c0,0.22 0.06,0.39 0.2,0.53s0.3,0.21 0.5,0.21s0.37,-0.07 0.51,-0.21c0.14,-0.14 0.21,-0.31 0.21,-0.53c0,-0.23 -0.07,-0.42 -0.21,-0.56a0.69,0.69 0 0 0 -0.51,-0.21c-0.2,0 -0.36,0.07 -0.5,0.21c-0.14,0.14 -0.2,0.33 -0.2,0.56z" id="svg_35"/>
    </g>
   </g>
  </g>
 </g>
</svg>